# xmcd
#
# Track frame offsets: 
#        150
#        25187
#        48662
#        74062
#        92675
#        114687
#        139650
#        167675
#        193675
#        220475
#
# Disc length: 3247 seconds
#
# Revision: 0
# Processed by: cddbd v1.5.2PL0 Copyright (c) Steve Scherf et al.
# Submitted via: ExactAudioCopy v1.0b3
#
DISCID=980cad0a
DTITLE=Kha Tu - Tinh Ca Que Huong
DYEAR=1994
DGENRE=
TTITLE0=Noi buon dem dong
TTITLE1=Giot buon khong ten
TTITLE2=Neu hai dua minh
TTITLE3=Tau dem nam cu
TTITLE4=Nguoi quen ke nho
TTITLE5=Hoa no ve dem
TTITLE6=Uoc hen
TTITLE7=Lan va Diep 1
TTITLE8=Lan va Diep 2
TTITLE9=Lan va Diep 3
EXTD=
EXTT0=
EXTT1=
EXTT2=
EXTT3=
EXTT4=
EXTT5=
EXTT6=
EXTT7=
EXTT8=
EXTT9=
PLAYORDER=
